<svg xmlns="http://www.w3.org/2000/svg" xmlns:xlink="http://www.w3.org/1999/xlink" width="500" zoomAndPan="magnify" viewBox="0 0 375 374.999991" height="500" preserveAspectRatio="xMidYMid meet" version="1.0"><defs><clipPath id="eed04d271f"><path d="M 191 234 L 375 234 L 375 291.980469 L 191 291.980469 Z M 191 234 " clip-rule="nonzero"/></clipPath><clipPath id="3a46e86149"><path d="M 0 234 L 184 234 L 184 291.980469 L 0 291.980469 Z M 0 234 " clip-rule="nonzero"/></clipPath><clipPath id="1d08cc892f"><path d="M 90 82.730469 L 282 82.730469 L 282 203 L 90 203 Z M 90 82.730469 " clip-rule="nonzero"/></clipPath></defs><g clip-path="url(#eed04d271f)"><path fill="#0071bc" d="M 206.429688 271.3125 C 269.945312 240.117188 327.574219 234.667969 356.164062 234.183594 C 366.523438 234.007812 374.960938 242.453125 374.757812 252.792969 C 374.566406 262.480469 366.835938 270.339844 357.140625 270.679688 C 273.789062 273.625 191.730469 291.96875 191.730469 291.96875 C 191.421875 282.535156 191.730469 280.28125 191.730469 280.28125 C 193.164062 276.242188 206.429688 271.3125 206.429688 271.3125 " fill-opacity="1" fill-rule="nonzero"/></g><path fill="#0071bc" d="M 200.09375 251.082031 C 238.09375 219.449219 276.332031 206.277344 295.671875 201.242188 C 302.679688 199.421875 309.800781 203.769531 311.367188 210.828125 C 312.835938 217.4375 308.882812 224.046875 302.351562 225.875 C 246.226562 241.578125 193.519531 267.53125 193.519531 267.53125 C 191.753906 261.171875 191.59375 259.589844 191.59375 259.589844 C 191.898438 256.613281 200.09375 251.082031 200.09375 251.082031 " fill-opacity="1" fill-rule="nonzero"/><g clip-path="url(#3a46e86149)"><path fill="#47ae6a" d="M 168.570312 271.3125 C 105.054688 240.117188 47.425781 234.667969 18.832031 234.183594 C 8.476562 234.007812 0.0390625 242.453125 0.242188 252.792969 C 0.433594 262.480469 8.164062 270.339844 17.855469 270.679688 C 101.210938 273.625 183.269531 291.96875 183.269531 291.96875 C 183.578125 282.535156 183.269531 280.28125 183.269531 280.28125 C 181.835938 276.242188 168.570312 271.3125 168.570312 271.3125 " fill-opacity="1" fill-rule="nonzero"/></g><path fill="#47ae6a" d="M 174.902344 251.082031 C 136.90625 219.449219 98.667969 206.277344 79.328125 201.242188 C 72.320312 199.421875 65.199219 203.769531 63.632812 210.828125 C 62.164062 217.4375 66.117188 224.046875 72.644531 225.875 C 128.773438 241.578125 181.480469 267.53125 181.480469 267.53125 C 183.246094 261.171875 183.40625 259.589844 183.40625 259.589844 C 183.101562 256.613281 174.902344 251.082031 174.902344 251.082031 " fill-opacity="1" fill-rule="nonzero"/><g clip-path="url(#1d08cc892f)"><path fill="#3084b5" d="M 278.414062 146.132812 L 232.324219 169.734375 L 232.429688 196.226562 L 232.128906 196.269531 L 232.125 196.871094 L 227.898438 196.84375 L 187.679688 202.339844 L 142.839844 196.871094 L 142.835938 196.226562 L 142.535156 196.226562 L 142.644531 169.128906 L 96.816406 144.816406 C 96.714844 144.761719 96.617188 144.703125 96.523438 144.644531 L 96.425781 158.019531 C 97.992188 158.40625 99.109375 159.410156 99.101562 160.578125 L 98.902344 187.703125 C 98.890625 189.195312 97.058594 190.390625 94.804688 190.371094 C 92.550781 190.355469 90.730469 189.132812 90.742188 187.644531 L 90.9375 160.523438 C 90.949219 159.351562 92.078125 158.363281 93.652344 158 L 93.777344 140.578125 C 93.417969 138.320312 94.359375 135.875 96.632812 134.566406 L 119.453125 121.398438 L 141.078125 108.921875 L 155.757812 100.449219 L 177.386719 87.972656 L 185.09375 83.523438 C 186.015625 82.992188 187.042969 82.734375 188.074219 82.738281 C 189.101562 82.746094 190.125 83.023438 191.035156 83.566406 L 192.0625 84.179688 L 213.691406 97.082031 L 228.371094 105.835938 L 249.996094 118.738281 L 278.746094 135.890625 C 282.699219 138.246094 282.515625 144.035156 278.414062 146.132812 " fill-opacity="1" fill-rule="nonzero"/></g><path fill="#45b0e5" d="M 187.679688 202.339844 L 188.140625 138.972656 L 232.410156 155.082031 L 232.105469 196.925781 L 187.679688 202.339844 " fill-opacity="1" fill-rule="nonzero"/></svg>